<mxfile host="65bd71144e">
    <diagram name="Página-1" id="n2xdA80f38TUeuvm9ufp">
        <mxGraphModel dx="122" dy="104" grid="1" gridSize="10" guides="1" tooltips="1" connect="1" arrows="1" fold="1" page="1" pageScale="1" pageWidth="827" pageHeight="1169" math="0" shadow="0">
            <root>
                <mxCell id="0"/>
                <mxCell id="4" value="Untitled Layer" parent="0"/>
                <mxCell id="5" value="" style="rounded=0;whiteSpace=wrap;html=1;" vertex="1" parent="4">
                    <mxGeometry x="320" y="120" width="270" height="290" as="geometry"/>
                </mxCell>
                <mxCell id="11" value="&lt;div&gt;&lt;br&gt;&lt;/div&gt;&lt;div&gt;&lt;br&gt;&lt;/div&gt;&lt;div&gt;&lt;br&gt;&lt;br&gt;&lt;/div&gt;" style="ellipse;whiteSpace=wrap;html=1;aspect=fixed;" vertex="1" parent="4">
                    <mxGeometry x="470" y="140" width="20" height="20" as="geometry"/>
                </mxCell>
                <mxCell id="12" value="Patient UI" style="edgeStyle=none;html=1;entryX=0.5;entryY=1;entryDx=0;entryDy=0;fontSize=12;endArrow=none;endFill=0;" edge="1" parent="4" target="11">
                    <mxGeometry x="0.3333" relative="1" as="geometry">
                        <mxPoint x="480" y="250" as="sourcePoint"/>
                        <Array as="points">
                            <mxPoint x="480" y="200"/>
                        </Array>
                        <mxPoint as="offset"/>
                    </mxGeometry>
                </mxCell>
                <mxCell id="13" value="&lt;div&gt;&lt;br&gt;&lt;/div&gt;&lt;div&gt;&lt;br&gt;&lt;/div&gt;&lt;div&gt;&lt;br&gt;&lt;br&gt;&lt;/div&gt;" style="ellipse;whiteSpace=wrap;html=1;aspect=fixed;" vertex="1" parent="4">
                    <mxGeometry x="540" y="150" width="20" height="20" as="geometry"/>
                </mxCell>
                <mxCell id="14" value="Staff UI" style="edgeStyle=none;html=1;entryX=0.5;entryY=1;entryDx=0;entryDy=0;fontSize=12;endArrow=none;endFill=0;exitX=1;exitY=0.5;exitDx=0;exitDy=0;" edge="1" parent="4" source="yezaJcdioR4BwKPc-LXy-6" target="13">
                    <mxGeometry relative="1" as="geometry">
                        <mxPoint x="485" y="228.33333333333337" as="sourcePoint"/>
                        <Array as="points">
                            <mxPoint x="540" y="210"/>
                        </Array>
                    </mxGeometry>
                </mxCell>
                <mxCell id="16" value="Admin UI" style="edgeStyle=none;html=1;entryX=0.5;entryY=1;entryDx=0;entryDy=0;fontSize=12;endArrow=none;endFill=0;exitX=0;exitY=0.5;exitDx=0;exitDy=0;" edge="1" parent="4" source="yezaJcdioR4BwKPc-LXy-6" target="yezaJcdioR4BwKPc-LXy-7">
                    <mxGeometry relative="1" as="geometry">
                        <mxPoint x="475" y="227.5" as="sourcePoint"/>
                        <mxPoint x="446" y="160" as="targetPoint"/>
                        <Array as="points">
                            <mxPoint x="420" y="210"/>
                        </Array>
                    </mxGeometry>
                </mxCell>
                <mxCell id="1" parent="0"/>
                <mxCell id="k1yO1b0AyRUfy4XpI7KQ-11" value="«Component»&lt;div&gt;«System»&lt;br&gt;&lt;b&gt;Healthcare System&lt;/b&gt;&lt;/div&gt;" style="html=1;dropTarget=0;whiteSpace=wrap;" parent="1" vertex="1">
                    <mxGeometry x="350" y="250" width="160" height="70" as="geometry"/>
                </mxCell>
                <mxCell id="k1yO1b0AyRUfy4XpI7KQ-12" value="" style="shape=module;jettyWidth=8;jettyHeight=4;" parent="k1yO1b0AyRUfy4XpI7KQ-11" vertex="1">
                    <mxGeometry x="1" width="20" height="20" relative="1" as="geometry">
                        <mxPoint x="-27" y="7" as="offset"/>
                    </mxGeometry>
                </mxCell>
                <mxCell id="yezaJcdioR4BwKPc-LXy-1" value="" style="rounded=0;orthogonalLoop=1;jettySize=auto;html=1;endArrow=halfCircle;endFill=0;endSize=6;strokeWidth=1;sketch=0;fontSize=12;curved=1;" parent="1" source="yezaJcdioR4BwKPc-LXy-3" target="yezaJcdioR4BwKPc-LXy-2" edge="1">
                    <mxGeometry relative="1" as="geometry">
                        <mxPoint x="445" y="385" as="sourcePoint"/>
                    </mxGeometry>
                </mxCell>
                <mxCell id="yezaJcdioR4BwKPc-LXy-2" value="" style="ellipse;whiteSpace=wrap;html=1;align=center;aspect=fixed;fillColor=none;strokeColor=none;resizable=0;perimeter=centerPerimeter;rotatable=0;allowArrows=0;points=[];outlineConnect=1;" parent="1" vertex="1">
                    <mxGeometry x="425" y="360" width="10" height="10" as="geometry"/>
                </mxCell>
                <mxCell id="yezaJcdioR4BwKPc-LXy-3" value="" style="whiteSpace=wrap;html=1;aspect=fixed;" parent="1" vertex="1">
                    <mxGeometry x="425" y="315" width="10" height="10" as="geometry"/>
                </mxCell>
                <mxCell id="yezaJcdioR4BwKPc-LXy-6" value="" style="whiteSpace=wrap;html=1;aspect=fixed;" parent="1" vertex="1">
                    <mxGeometry x="475" y="245" width="10" height="10" as="geometry"/>
                </mxCell>
                <mxCell id="yezaJcdioR4BwKPc-LXy-7" value="&lt;div&gt;&lt;br&gt;&lt;/div&gt;&lt;div&gt;&lt;br&gt;&lt;/div&gt;&lt;div&gt;&lt;br&gt;&lt;br&gt;&lt;/div&gt;" style="ellipse;whiteSpace=wrap;html=1;aspect=fixed;" parent="1" vertex="1">
                    <mxGeometry x="404" y="150" width="20" height="20" as="geometry"/>
                </mxCell>
                <mxCell id="2" value="" style="ellipse;whiteSpace=wrap;html=1;aspect=fixed;" vertex="1" parent="1">
                    <mxGeometry x="425" y="360" width="10" height="10" as="geometry"/>
                </mxCell>
                <mxCell id="17" value="" style="edgeStyle=none;html=1;fontSize=12;endArrow=none;endFill=0;" edge="1" parent="1" target="yezaJcdioR4BwKPc-LXy-3">
                    <mxGeometry relative="1" as="geometry">
                        <mxPoint x="430" y="350" as="sourcePoint"/>
                    </mxGeometry>
                </mxCell>
                <mxCell id="3" value="Google OAuth2.0 API" style="text;html=1;align=center;verticalAlign=middle;resizable=0;points=[];autosize=1;strokeColor=none;fillColor=none;" vertex="1" parent="1">
                    <mxGeometry x="360" y="365" width="140" height="30" as="geometry"/>
                </mxCell>
            </root>
        </mxGraphModel>
    </diagram>
</mxfile>